<svg width="32" height="32" viewBox="0 0 1440 1024" fill="none" xmlns="http://www.w3.org/2000/svg">
<path d="M426.848 115.546C430.862 112.95 439.492 120.331 442.948 122.648C463.342 136.145 580.639 209.551 590.826 214.916C597.766 218.587 604.492 222.649 610.973 227.082C616.242 230.574 621.286 234.394 626.075 238.519C633.861 245.351 640.86 253.03 646.941 261.414C651.363 267.347 655.732 273.216 659.886 282.153C662.591 288.143 664.747 294.366 666.326 300.746C668.976 310.577 670.705 320.634 671.489 330.786C671.999 337.694 671.999 344.629 671.489 351.536C670.791 361.267 669.482 365.483 666.326 368.702C664.287 370.66 661.827 372.128 659.135 372.993C654.841 374.624 649.796 375.332 641.875 374.42C635.96 373.744 630.143 372.387 624.54 370.376L623.885 370.129C604.746 362.799 586.224 353.948 568.5 343.661C541.665 325.819 516.366 305.606 518.137 302.892C518.814 301.819 522.828 304.404 538.392 308.621C544.972 310.481 551.666 311.915 558.431 312.912C561.813 313.384 575.208 315.251 575.605 313.62C576.035 311.829 560.063 307.795 535.526 297.173C519.908 290.403 512.094 287.024 503.325 280.726C489.038 270.448 480.881 259.537 474.258 250.685C468.634 243.175 461.464 233.584 463.46 231.374C465.456 229.164 475.267 236.942 498.323 248.54C509.802 254.454 521.719 259.476 533.969 263.56C542.825 266.457 559.118 271.156 559.859 269.278C560.6 267.401 546.41 260.481 534.689 254.258C511.479 241.881 489.083 228.038 467.635 212.813C454.131 201.264 443.376 186.848 436.154 170.617C431.806 160.736 430.153 152.11 426.848 134.858C424.39 122.037 424.379 117.145 426.848 115.546Z" fill="#010406"/>
<path d="M1012.14 115.546C1008.13 112.95 999.499 120.331 996.043 122.648C975.649 136.145 858.351 209.551 848.165 214.916C841.225 218.587 834.498 222.649 828.018 227.082C822.749 230.574 817.705 234.394 812.916 238.519C805.129 245.351 798.131 253.03 792.049 261.414C787.627 267.347 783.259 273.216 779.105 282.153C776.405 288.145 774.249 294.368 772.664 300.746C770.026 310.58 768.301 320.636 767.512 330.786C767.003 337.694 767.003 344.629 767.512 351.536C768.21 361.267 769.52 365.483 772.664 368.702C774.709 370.659 777.172 372.126 779.867 372.993C784.16 374.624 789.205 375.332 797.126 374.42C802.997 373.751 808.77 372.408 814.333 370.418L814.998 370.172C834.138 362.842 852.659 353.991 870.384 343.704C897.164 325.862 922.506 305.649 920.746 302.935C920.07 301.862 916.055 304.447 900.492 308.664C893.911 310.524 887.217 311.957 880.452 312.955C877.071 313.427 863.675 315.294 863.278 313.663C862.849 311.872 878.81 307.838 903.357 297.216C918.975 290.446 926.789 287.067 935.558 280.769C949.845 270.491 958.003 259.58 964.625 250.728C970.25 243.218 977.42 233.627 975.413 231.417C973.405 229.206 963.606 236.985 940.56 248.583C929.082 254.497 917.164 259.518 904.914 263.603C896.059 266.5 879.765 271.199 879.024 269.321C878.284 267.444 892.474 260.524 904.195 254.301C927.434 241.913 949.86 228.055 971.334 212.813C984.85 201.268 995.617 186.852 1002.85 170.617C1007.14 160.736 1008.85 152.11 1012.15 134.858C1014.61 122.037 1014.62 117.145 1012.14 115.546Z" fill="#010406"/>
<path d="M785.62 428.343C775.015 411.241 765.226 394.515 756.285 378.304L720.059 418.945L683.833 378.304C674.849 394.515 665.092 411.241 654.487 428.343C644.666 444.2 634.844 459.199 625.152 473.339C626.188 482.919 629.235 492.172 634.093 500.494C637.782 506.765 642.536 512.346 648.143 516.984C654.693 509.075 660.305 500.434 664.866 491.235C670.049 480.767 673.896 469.691 676.319 458.266C676.58 470.966 675.981 483.669 674.527 496.288C673.039 509.239 670.646 522.07 667.367 534.686C672.677 543.198 678.044 551.731 683.468 560.285C691.582 573.095 699.693 585.766 707.801 598.297C713.621 563.63 717.445 528.658 719.254 493.552C719.597 486.836 720.51 486.836 720.864 493.552C722.664 528.654 726.485 563.624 732.306 598.287C740.406 585.755 748.517 573.085 756.639 560.275C762.063 551.692 767.43 543.159 772.74 534.676C766.267 509.733 763.258 484.018 763.798 458.255C766.219 469.68 770.063 480.756 775.241 491.224C779.805 500.424 785.42 509.065 791.974 516.973C797.578 512.334 802.329 506.754 806.014 500.483C810.877 492.163 813.924 482.909 814.955 473.329C805.263 459.22 795.441 444.2 785.62 428.343Z" fill="#010406"/>
<path d="M763.036 197.085C754.375 190.272 743.834 186.277 732.831 185.636C721.829 184.995 710.894 187.74 701.5 193.501C695.156 197.069 690.134 202.589 687.182 209.24C683.028 217.576 683.575 216.75 681.461 232.844C680.698 238.616 680.634 239.206 678.82 252.831L677.747 260.878C677.747 260.878 679.003 262.112 680.215 263.453C688.019 272.122 688.051 272.379 688.341 272.443C688.395 272.443 695.608 280.179 695.64 280.211C697.067 281.831 697.067 281.702 705.794 290.779C717.601 303.063 717.783 302.473 719.125 302.344C720.467 302.216 720.198 302.613 732.671 289.867C739.809 282.582 740.088 282.55 744.081 277.926C744.167 277.818 744.263 277.722 744.349 277.625C744.778 277.175 756.95 263.206 757.133 262.605C757.284 262.032 757.284 261.429 757.133 260.856C756.564 258.475 754.578 252.574 753.73 249.323C753.344 247.832 753.301 247.306 752.517 244.237C752.12 242.714 751.82 241.641 751.584 240.74C749.104 231.363 748.728 230.397 749.437 229.303C750.596 227.522 754.052 224.014 763.036 225.012C769.477 225.72 773.427 227.157 782.357 232.157C793.81 238.562 777.441 207.77 763.036 197.085ZM754.449 206.376C752.218 206.263 750.031 205.716 748.009 204.766C746.596 204.047 745.324 203.081 744.252 201.912C743.038 200.568 742.123 198.981 741.569 197.256C744.192 197.586 746.77 198.209 749.254 199.112C753.844 200.791 758.044 203.386 761.598 206.74C759.195 206.804 756.791 206.682 754.407 206.376H754.449Z" fill="#010406"/>
<path d="M746.71 353.07L759.72 353.07C761.165 346.917 761.165 340.512 759.72 334.359H746.71L741.279 324.971L747.719 313.706C743.11 309.379 737.563 306.174 731.512 304.34L725.007 315.637L714.188 315.637L707.64 304.34C701.591 306.178 696.048 309.387 691.443 313.717L697.99 325.014L692.624 334.413H679.529C678.097 340.568 678.097 346.969 679.529 353.124H692.624L698.066 362.511L691.54 373.841C696.159 378.159 701.713 381.353 707.769 383.175L714.284 371.845H725.136L731.683 383.132C737.731 381.282 743.27 378.062 747.87 373.723L741.344 362.468L746.71 353.07ZM733.68 351.493C732.147 354.268 729.825 356.527 727.008 357.983C724.191 359.44 721.005 360.029 717.854 359.675C714.702 359.322 711.725 358.043 709.301 355.999C706.877 353.955 705.113 351.238 704.234 348.192C703.354 345.146 703.398 341.908 704.359 338.887C705.321 335.866 707.157 333.198 709.636 331.22C712.114 329.242 715.124 328.043 718.284 327.775C721.444 327.507 724.613 328.182 727.39 329.713C729.236 330.729 730.863 332.098 732.179 333.742C733.495 335.387 734.473 337.274 735.058 339.297C735.643 341.32 735.824 343.439 735.589 345.531C735.355 347.624 734.709 349.65 733.691 351.493H733.68Z" fill="#010406"/>
<path d="M639.138 708.299L645.578 639.099L687.976 680.405L639.138 708.299Z" fill="#010406"/>
<path d="M743.254 653.583L771.162 595.647L785.116 677.722L743.254 653.583Z" fill="#010406"/>
<path d="M793.702 635.88V536.103L815.17 577.945L793.702 635.88Z" fill="#010406"/>
<path d="M658.458 597.257L626.794 518.4V570.435L658.458 597.257Z" fill="#010406"/>
<path d="M730.374 831.68L751.305 783.401H730.374V831.68Z" fill="#010406"/>
<path d="M720.714 717.419V694.888L758.818 732.975L720.714 717.419Z" fill="#010406"/>
<path d="M800.679 818.806V793.593L815.17 818.806H800.679Z" fill="#010406"/>
<path d="M660.068 903.563V886.397L675.632 910L660.068 903.563Z" fill="#010406"/>
<path d="M698.173 672.894L674.559 570.435L715.347 618.178L698.173 672.894Z" fill="#010406"/>
</svg>
